 <svg  version="1.0" xmlns="http://www.w3.org/2000/svg"  width="300.000000pt" height="90.000000pt" viewBox="0 0 300.000000 90.000000"  preserveAspectRatio="xMidYMid meet">  <g transform="translate(0.000000,90.000000) scale(0.100000,-0.100000)" fill="#ffffff" stroke="none"> <path d="M1544 870 c-36 -5 -56 -15 -110 -55 -10 -7 -22 -1 -44 20 l-31 30 -182 3 c-208 4 -237 -3 -284 -65 -26 -34 -28 -43 -31 -150 -2 -62 -7 -113 -10 -113 -4 1 -23 35 -42 77 -36 79 -106 160 -164 190 -84 44 -140 55 -301 60 -150 5 -163 4 -202 -15 -23 -12 -52 -36 -65 -54 -23 -33 -23 -37 -26 -341 -3 -296 -2 -309 18 -345 12 -20 36 -47 55 -59 32 -22 45 -23 197 -23 90 0 182 5 206 10 138 32 251 136 298 275 23 65 33 42 33 -72 0 -95 7 -120 45 -161 43 -48 63 -52 259 -52 l184 0 39 29 c84 60 79 168 -8 226 l-42 28 25 21 c44 38 59 68 59 119 0 44 -4 54 -39 89 l-39 39 39 26 c24 16 43 23 49 17 5 -5 31 -61 58 -124 118 -273 172 -392 193 -421 28 -40 101 -73 142 -65 78 16 111 60 205 276 57 133 75 169 81 166 4 -3 8 -19 9 -38 18 -241 269 -440 501 -397 172 32 291 130 355 291 77 195 -24 424 -230 523 -161 77 -350 48 -486 -73 l-48 -44 -19 44 c-35 81 -93 120 -165 111 -76 -9 -124 -63 -165 -187 -34 -101 -51 -137 -60 -132 -5 3 -28 58 -52 123 -23 64 -54 129 -68 145 -35 38 -86 56 -137 48z m106 -67 c23 -25 140 -329 140 -362 0 -5 4 -12 9 -15 5 -3 37 75 71 174 53 154 67 185 97 210 54 48 137 36 177 -24 33 -51 22 -90 -99 -365 -145 -330 -149 -337 -187 -357 -41 -21 -104 -13 -134 18 -23 23 -284 605 -284 633 0 34 31 86 62 105 47 30 113 22 148 -17z m1024 22 c109 -33 197 -109 249 -215 30 -60 32 -72 32 -165 0 -90 -3 -106 -29 -160 -99 -201 -346 -289 -543 -194 -152 73 -251 256 -224 413 27 154 133 274 286 322 55 17 170 17 229 -1z m-2108 -22 c165 -65 252 -203 242 -382 -8 -135 -79 -247 -195 -309 -79 -41 -141 -52 -294 -52 -145 0 -183 10 -214 56 -18 27 -20 51 -23 309 -4 309 0 338 50 380 l32 27 176 -4 c145 -4 184 -8 226 -25z m789 15 c47 -21 69 -92 44 -141 -25 -48 -48 -57 -156 -57 l-103 0 0 -35 0 -35 91 0 c90 0 91 0 125 -34 40 -40 44 -75 14 -123 -24 -40 -74 -56 -163 -51 l-67 3 0 -35 0 -35 77 3 c43 2 94 -1 115 -7 99 -30 106 -161 10 -200 -20 -9 -83 -11 -200 -9 -166 3 -171 4 -198 28 -51 48 -54 67 -54 360 0 294 4 318 55 358 26 21 38 22 206 22 117 0 187 -4 204 -12z"/> <path d="M2490 608 c-118 -60 -124 -253 -10 -317 51 -28 117 -28 161 2 64 42 97 149 68 224 -22 60 -97 113 -159 113 -9 0 -36 -10 -60 -22z m121 -33 c67 -35 89 -131 47 -206 -53 -94 -187 -73 -216 35 -33 117 71 221 169 171z"/> <path d="M330 446 l0 -175 58 6 c77 8 114 24 147 67 91 120 -3 276 -167 276 l-38 0 0 -174z m117 119 c55 -23 78 -59 78 -122 0 -44 -5 -56 -29 -82 -31 -32 -87 -54 -112 -44 -11 4 -14 31 -14 127 0 68 3 126 7 129 10 11 29 8 70 -8z"/> </g> </svg> 